<svg class="diagram-root" style="background: #f5f6f6" xmlns="http://www.w3.org/2000/svg" xmlns:xlink="http://www.w3.org/1999/xlink"><style>.diagram-root { font-family: "Helvetica Neue", sans-serif; font-size: 12px; } .t { overflow: visible; } .t-bg { y: 40; fill: #fff;   } .th { fill: #005aa0;   } .tht { fill: #fff; font-size: 14px;  } .tf { fill: #323c46; overflow: visible; } .tf.pk { fill: #005aa0; font-weight: bold; } .tf.fk { font-weight: bold; } .ty { fill: #adb1b5; font-weight: normal; text-anchor: end; } .r { fill: transparent; stroke: #c3c3c3; stroke-width: 1; } .l { stroke: 1; } .i { fill: #c2c7ce; stroke: #c2c7ce; } .i.ix { fill: #afb3b6; stroke: #000; } .fa { fill: transparent; overflow: visible; } .fa .bg.hover { fill: #f7f7f7; } .c { cy: 12; r: 4; stroke: #d2d2dc; fill: #d2d2dc; } .hr { fill: transparent; stroke: #323c46; stroke-opacity: 0.035; stroke-width: 13; } .dc { stroke: #fa5a3c; fill: #fa5a3c; } .x { stroke: white; stroke-width: 1; } .hl .th { fill: #1b9bff; } .hl .tht {  } .fhl .bg { fill: #e7f4ff; } .fhls .bg {  } .r.hl { stroke: #1b9bff; } .dim { opacity: 0.25; }</style><g class="drawing-wrapper" transform="translate(-0.2222222222222463, 18.88888888888896) scale(1,1)"><g class="rs"><path d="M 283.99 93.11 m -1, 0 a 1,1 0 1,0 2,0 a 1,1 0 1,0 -2,0 M 283.99 93.11 m -0.5, 0 a 0.5,0.5 0 1,0 1,0 a 0.5,0.5 0 1,0 -1,0  M283.99 93.11 L283.99 93.11 271.99 93.11 M 283.99 99.11 m -1, 0 a 1,1 0 1,0 2,0 a 1,1 0 1,0 -2,0 M 283.99 99.11 m -0.5, 0 a 0.5,0.5 0 1,0 1,0 a 0.5,0.5 0 1,0 -1,0  M283.99 99.11 L283.99 99.11 276.99 93.11 283.99 87.11 M 283.99 87.11 m -1, 0 a 1,1 0 1,0 2,0 a 1,1 0 1,0 -2,0 M 283.99 87.11 m -0.5, 0 a 0.5,0.5 0 1,0 1,0 a 0.5,0.5 0 1,0 -1,0  M271.99 93.11 Q 253.72 93.11, 235.44 112.84 T 198.89 132.56 M 186.89 132.56 m -1, 0 a 1,1 0 1,0 2,0 a 1,1 0 1,0 -2,0 M 186.89 132.56 m -0.5, 0 a 0.5,0.5 0 1,0 1,0 a 0.5,0.5 0 1,0 -1,0  M186.89 132.56 L186.89 132.56 198.89 132.56 M192.89 138.56 L192.89 138.56 192.89 126.56" id="h3154873429" class="r"></path><path d="M 673.11 165.32 m -1, 0 a 1,1 0 1,0 2,0 a 1,1 0 1,0 -2,0 M 673.11 165.32 m -0.5, 0 a 0.5,0.5 0 1,0 1,0 a 0.5,0.5 0 1,0 -1,0  M673.11 165.32 L673.11 165.32 661.11 165.32 M 673.11 171.32 m -1, 0 a 1,1 0 1,0 2,0 a 1,1 0 1,0 -2,0 M 673.11 171.32 m -0.5, 0 a 0.5,0.5 0 1,0 1,0 a 0.5,0.5 0 1,0 -1,0  M673.11 171.32 L673.11 171.32 666.11 165.32 673.11 159.32 M 673.11 159.32 m -1, 0 a 1,1 0 1,0 2,0 a 1,1 0 1,0 -2,0 M 673.11 159.32 m -0.5, 0 a 0.5,0.5 0 1,0 1,0 a 0.5,0.5 0 1,0 -1,0  M661.11 165.32 Q 625.12 165.32, 589.13 262.73 T 517.14 360.14 M 505.14 360.14 m -1, 0 a 1,1 0 1,0 2,0 a 1,1 0 1,0 -2,0 M 505.14 360.14 m -0.5, 0 a 0.5,0.5 0 1,0 1,0 a 0.5,0.5 0 1,0 -1,0  M505.14 360.14 L505.14 360.14 517.14 360.14 M511.14 366.14 L511.14 366.14 511.14 354.14" id="h1397587031" class="r"></path><path d="M 673.11 190.32 m -1, 0 a 1,1 0 1,0 2,0 a 1,1 0 1,0 -2,0 M 673.11 190.32 m -0.5, 0 a 0.5,0.5 0 1,0 1,0 a 0.5,0.5 0 1,0 -1,0  M673.11 190.32 L673.11 190.32 661.11 190.32 M 673.11 196.32 m -1, 0 a 1,1 0 1,0 2,0 a 1,1 0 1,0 -2,0 M 673.11 196.32 m -0.5, 0 a 0.5,0.5 0 1,0 1,0 a 0.5,0.5 0 1,0 -1,0  M673.11 196.32 L673.11 196.32 666.11 190.32 673.11 184.32 M 673.11 184.32 m -1, 0 a 1,1 0 1,0 2,0 a 1,1 0 1,0 -2,0 M 673.11 184.32 m -0.5, 0 a 0.5,0.5 0 1,0 1,0 a 0.5,0.5 0 1,0 -1,0  M661.11 190.32 Q 612.83 190.32, 564.55 129.22 T 467.99 68.11 M 455.99 68.11 m -1, 0 a 1,1 0 1,0 2,0 a 1,1 0 1,0 -2,0 M 455.99 68.11 m -0.5, 0 a 0.5,0.5 0 1,0 1,0 a 0.5,0.5 0 1,0 -1,0  M455.99 68.11 L455.99 68.11 467.99 68.11 M461.99 74.11 L461.99 74.11 461.99 62.11" id="h2286254435" class="r"></path><path d="M 196.78 380.33 m -1, 0 a 1,1 0 1,0 2,0 a 1,1 0 1,0 -2,0 M 196.78 380.33 m -0.5, 0 a 0.5,0.5 0 1,0 1,0 a 0.5,0.5 0 1,0 -1,0  M196.78 380.33 L196.78 380.33 208.78 380.33 M 196.78 386.33 m -1, 0 a 1,1 0 1,0 2,0 a 1,1 0 1,0 -2,0 M 196.78 386.33 m -0.5, 0 a 0.5,0.5 0 1,0 1,0 a 0.5,0.5 0 1,0 -1,0  M196.78 386.33 L196.78 386.33 203.78 380.33 196.78 374.33 M 196.78 374.33 m -1, 0 a 1,1 0 1,0 2,0 a 1,1 0 1,0 -2,0 M 196.78 374.33 m -0.5, 0 a 0.5,0.5 0 1,0 1,0 a 0.5,0.5 0 1,0 -1,0  M208.78 380.33 Q 224.58 380.33, 240.39 224.22 T 271.99 68.11 M 283.99 68.11 m -1, 0 a 1,1 0 1,0 2,0 a 1,1 0 1,0 -2,0 M 283.99 68.11 m -0.5, 0 a 0.5,0.5 0 1,0 1,0 a 0.5,0.5 0 1,0 -1,0  M283.99 68.11 L283.99 68.11 271.99 68.11 M277.99 74.11 L277.99 74.11 277.99 62.11" id="h1139284389" class="r"></path><path d="M 196.78 405.33 m -1, 0 a 1,1 0 1,0 2,0 a 1,1 0 1,0 -2,0 M 196.78 405.33 m -0.5, 0 a 0.5,0.5 0 1,0 1,0 a 0.5,0.5 0 1,0 -1,0  M196.78 405.33 L196.78 405.33 208.78 405.33 M 196.78 411.33 m -1, 0 a 1,1 0 1,0 2,0 a 1,1 0 1,0 -2,0 M 196.78 411.33 m -0.5, 0 a 0.5,0.5 0 1,0 1,0 a 0.5,0.5 0 1,0 -1,0  M196.78 411.33 L196.78 411.33 203.78 405.33 196.78 399.33 M 196.78 399.33 m -1, 0 a 1,1 0 1,0 2,0 a 1,1 0 1,0 -2,0 M 196.78 399.33 m -0.5, 0 a 0.5,0.5 0 1,0 1,0 a 0.5,0.5 0 1,0 -1,0  M208.78 405.33 Q 237.21 405.33, 265.63 382.74 T 322.47 360.14 M 334.47 360.14 m -1, 0 a 1,1 0 1,0 2,0 a 1,1 0 1,0 -2,0 M 334.47 360.14 m -0.5, 0 a 0.5,0.5 0 1,0 1,0 a 0.5,0.5 0 1,0 -1,0  M334.47 360.14 L334.47 360.14 322.47 360.14 M328.47 366.14 L328.47 366.14 328.47 354.14" id="h1607168654" class="r"></path><path d="M 655.13 359.13 m -1, 0 a 1,1 0 1,0 2,0 a 1,1 0 1,0 -2,0 M 655.13 359.13 m -0.5, 0 a 0.5,0.5 0 1,0 1,0 a 0.5,0.5 0 1,0 -1,0  M655.13 359.13 L655.13 359.13 643.13 359.13 M 655.13 365.13 m -1, 0 a 1,1 0 1,0 2,0 a 1,1 0 1,0 -2,0 M 655.13 365.13 m -0.5, 0 a 0.5,0.5 0 1,0 1,0 a 0.5,0.5 0 1,0 -1,0  M655.13 365.13 L655.13 365.13 648.13 359.13 655.13 353.13 M 655.13 353.13 m -1, 0 a 1,1 0 1,0 2,0 a 1,1 0 1,0 -2,0 M 655.13 353.13 m -0.5, 0 a 0.5,0.5 0 1,0 1,0 a 0.5,0.5 0 1,0 -1,0  M643.13 359.13 Q 599.35 359.13, 555.56 213.62 T 467.99 68.11 M 455.99 68.11 m -1, 0 a 1,1 0 1,0 2,0 a 1,1 0 1,0 -2,0 M 455.99 68.11 m -0.5, 0 a 0.5,0.5 0 1,0 1,0 a 0.5,0.5 0 1,0 -1,0  M455.99 68.11 L455.99 68.11 467.99 68.11 M461.99 74.11 L461.99 74.11 461.99 62.11" id="h3177548053" class="r"></path></g><g class="hrs"></g><g class="ts"><svg width="164.67" height="100" x="22.22" y="75.56" id="h311790747" class="t"><rect height="40" width="164.67" class="th"></rect><text x="13" y="25" class="tht">titles</text><rect height="60" width="164.67" class="t-bg" y="40"></rect><text x="13" y="61" class="tf pk">title_ID<tspan x="151.67" class="ty">varchar(30)</tspan></text><path d="M7,14A2,2 0 0,1 5,12A2,2 0 0,1 7,10A2,2 0 0,1 9,12A2,2 0 0,1 7,14M12.65,10C11.83,7.67 9.61,6 7, 6A6, 6 0 0, 0 1, 12A6, 6 0 0, 0 7, 18C9.61, 18 11.83, 16.33 12.65, 14H17V18H21V14H23V10H12.65Z" class="i pk" transform="translate(70.33666793823241, 48) scale(0.65)"></path><text x="13" y="86" class="tf">title<tspan x="151.67" class="ty">varchar(30</tspan></text></svg><svg width="172" height="225" x="283.99" y="11.11" id="h1639608377" class="t"><rect height="40" width="172" class="th"></rect><text x="13" y="25" class="tht">employees</text><rect height="185" width="172" class="t-bg" y="40"></rect><text x="13" y="61" class="tf pk">emp_no<tspan x="159" class="ty">int</tspan></text><path d="M7,14A2,2 0 0,1 5,12A2,2 0 0,1 7,10A2,2 0 0,1 9,12A2,2 0 0,1 7,14M12.65,10C11.83,7.67 9.61,6 7, 6A6, 6 0 0, 0 1, 12A6, 6 0 0, 0 7, 18C9.61, 18 11.83, 16.33 12.65, 14H17V18H21V14H23V10H12.65Z" class="i pk" transform="translate(126.3333330154419, 48) scale(0.65)"></path><text x="13" y="86" class="tf fk">emp_title_id<tspan x="159" class="ty">varchar(30)</tspan></text><text x="13" y="111" class="tf">birth_date<tspan x="159" class="ty">date</tspan></text><text x="13" y="136" class="tf">first_name<tspan x="159" class="ty">varchar(30)</tspan></text><text x="13" y="161" class="tf">last_name<tspan x="159" class="ty">varchar(30)</tspan></text><text x="13" y="186" class="tf">sex<tspan x="159" class="ty">varchar(1)</tspan></text><text x="13" y="211" class="tf">hire_date<tspan x="159" class="ty">date</tspan></text></svg><svg width="170.67" height="100" x="334.47" y="303.14" id="h475896179" class="t"><rect height="40" width="170.67" class="th"></rect><text x="13" y="25" class="tht">departments</text><rect height="60" width="170.67" class="t-bg" y="40"></rect><text x="13" y="61" class="tf pk">dept_no<tspan x="157.67" class="ty">varchar(30)</tspan></text><path d="M7,14A2,2 0 0,1 5,12A2,2 0 0,1 7,10A2,2 0 0,1 9,12A2,2 0 0,1 7,14M12.65,10C11.83,7.67 9.61,6 7, 6A6, 6 0 0, 0 1, 12A6, 6 0 0, 0 7, 18C9.61, 18 11.83, 16.33 12.65, 14H17V18H21V14H23V10H12.65Z" class="i pk" transform="translate(76.33666793823241, 48) scale(0.65)"></path><text x="13" y="86" class="tf">dept_name<tspan x="157.67" class="ty">varchar(30)</tspan></text></svg><svg width="170.67" height="100" x="673.11" y="108.32" id="h1676682957" class="t"><rect height="40" width="170.67" class="th"></rect><text x="13" y="25" class="tht">dept_manager</text><rect height="60" width="170.67" class="t-bg" y="40"></rect><text x="13" y="61" class="tf pk">dept_no<tspan x="157.67" class="ty">varchar(30)</tspan></text><path d="M7,14A2,2 0 0,1 5,12A2,2 0 0,1 7,10A2,2 0 0,1 9,12A2,2 0 0,1 7,14M12.65,10C11.83,7.67 9.61,6 7, 6A6, 6 0 0, 0 1, 12A6, 6 0 0, 0 7, 18C9.61, 18 11.83, 16.33 12.65, 14H17V18H21V14H23V10H12.65Z" class="i pk" transform="translate(76.33666793823241, 48) scale(0.65)"></path><text x="13" y="86" class="tf pk">emp_no<tspan x="157.67" class="ty">int</tspan></text><path d="M7,14A2,2 0 0,1 5,12A2,2 0 0,1 7,10A2,2 0 0,1 9,12A2,2 0 0,1 7,14M12.65,10C11.83,7.67 9.61,6 7, 6A6, 6 0 0, 0 1, 12A6, 6 0 0, 0 7, 18C9.61, 18 11.83, 16.33 12.65, 14H17V18H21V14H23V10H12.65Z" class="i pk" transform="translate(125.00333301544188, 73) scale(0.65)"></path></svg><svg width="170.67" height="100" x="26.11" y="323.33" id="h1090417462" class="t"><rect height="40" width="170.67" class="th"></rect><text x="13" y="25" class="tht">dept_emp</text><rect height="60" width="170.67" class="t-bg" y="40"></rect><text x="13" y="61" class="tf pk">emp_no<tspan x="157.67" class="ty">int</tspan></text><path d="M7,14A2,2 0 0,1 5,12A2,2 0 0,1 7,10A2,2 0 0,1 9,12A2,2 0 0,1 7,14M12.65,10C11.83,7.67 9.61,6 7, 6A6, 6 0 0, 0 1, 12A6, 6 0 0, 0 7, 18C9.61, 18 11.83, 16.33 12.65, 14H17V18H21V14H23V10H12.65Z" class="i pk" transform="translate(125.00333301544188, 48) scale(0.65)"></path><text x="13" y="86" class="tf pk">dept_no<tspan x="157.67" class="ty">varchar(30)</tspan></text><path d="M7,14A2,2 0 0,1 5,12A2,2 0 0,1 7,10A2,2 0 0,1 9,12A2,2 0 0,1 7,14M12.65,10C11.83,7.67 9.61,6 7, 6A6, 6 0 0, 0 1, 12A6, 6 0 0, 0 7, 18C9.61, 18 11.83, 16.33 12.65, 14H17V18H21V14H23V10H12.65Z" class="i pk" transform="translate(76.33666793823241, 73) scale(0.65)"></path></svg><svg width="122" height="100" x="655.13" y="302.13" id="h2472833127" class="t"><rect height="40" width="122" class="th"></rect><text x="13" y="25" class="tht">salaries</text><rect height="60" width="122" class="t-bg" y="40"></rect><text x="13" y="61" class="tf pk">emp_no<tspan x="109" class="ty">int</tspan></text><path d="M7,14A2,2 0 0,1 5,12A2,2 0 0,1 7,10A2,2 0 0,1 9,12A2,2 0 0,1 7,14M12.65,10C11.83,7.67 9.61,6 7, 6A6, 6 0 0, 0 1, 12A6, 6 0 0, 0 7, 18C9.61, 18 11.83, 16.33 12.65, 14H17V18H21V14H23V10H12.65Z" class="i pk" transform="translate(76.3333330154419, 48) scale(0.65)"></path><text x="13" y="86" class="tf">salary<tspan x="109" class="ty">int</tspan></text></svg></g></g><text class="qdbd-link" x="10" y="20">www.quickdatabasediagrams.com</text></svg>